#define loupe_width 16
#define loupe_height 16
static unsigned char loupe_bits[] = {
   0x00, 0x00, 0x3c, 0x00, 0x42, 0x00, 0x81, 0x00, 0x81, 0x00, 0x81, 0x00, 0x81, 0x00, 0x42, 0x00,
   0x3c, 0x00, 0x00, 0x00, 0x08, 0x00, 0x10, 0x00, 0x20, 0x00, 0x40, 0x00, 0x80, 0x00, 0x00, 0x00};
