#define 287080a087f445eefa5f8e065f90b2b14gdYDevw7yckfGrV_width 16
#define 287080a087f445eefa5f8e065f90b2b14gdYDevw7yckfGrV_height 16
static char 287080a087f445eefa5f8e065f90b2b14gdYDevw7yckfGrV_bits[] = {
  0x00, 0x00, 0x00, 0x1F, 0x80, 0x09, 0xC0, 0x44, 0x40, 0x66, 0x40, 0x5E, 
  0xC0, 0x4C, 0x40, 0x60, 0x20, 0x32, 0x10, 0x1F, 0x88, 0x00, 0x44, 0x00, 
  0x26, 0x00, 0x1C, 0x00, 0x08, 0x00, 0x00, 0x00, };
